<svg width="1024" height="1024" viewBox="0 0 1024 1024" fill="none" xmlns="http://www.w3.org/2000/svg">
  <!-- Background with gradient -->
  <defs>
    <linearGradient id="backgroundGradient" x1="0%" y1="0%" x2="100%" y2="100%">
      <stop offset="0%" style="stop-color:#FDC700;stop-opacity:1" />
      <stop offset="100%" style="stop-color:#FE9A00;stop-opacity:1" />
    </linearGradient>
    
    <!-- Drop shadow filter -->
    <filter id="dropShadow" x="-50%" y="-50%" width="200%" height="200%">
      <feDropShadow dx="0" dy="20" stdDeviation="15" flood-color="#000000" flood-opacity="0.1"/>
    </filter>
    
    <!-- Inner shadow for depth -->
    <filter id="innerShadow" x="-50%" y="-50%" width="200%" height="200%">
      <feOffset dx="0" dy="2"/>
      <feGaussianBlur stdDeviation="4"/>
      <feComposite operator="out" in2="SourceGraphic"/>
      <feColorMatrix values="0 0 0 0 0 0 0 0 0 0 0 0 0 0 0 0 0 0 0.1 0"/>
      <feBlend mode="normal" in2="SourceGraphic"/>
    </filter>
  </defs>
  
  <!-- App icon background -->
  <rect width="1024" height="1024" rx="200" fill="url(#backgroundGradient)" filter="url(#dropShadow)"/>
  
  <!-- Paw print icon -->
  <g transform="translate(512, 512)">
    <!-- Main paw pad -->
    <ellipse cx="0" cy="0" rx="120" ry="100" fill="white" opacity="0.9"/>
    
    <!-- Toe pads -->
    <ellipse cx="-60" cy="-80" rx="35" ry="45" fill="white" opacity="0.9"/>
    <ellipse cx="60" cy="-80" rx="35" ry="45" fill="white" opacity="0.9"/>
    <ellipse cx="-30" cy="-120" rx="30" ry="40" fill="white" opacity="0.9"/>
    <ellipse cx="30" cy="-120" rx="30" ry="40" fill="white" opacity="0.9"/>
    
    <!-- Claw marks -->
    <g transform="translate(0, -180)">
      <path d="M-40,-20 Q-35,-40 -30,-60" stroke="white" stroke-width="8" stroke-linecap="round" opacity="0.7"/>
      <path d="M-10,-20 Q-5,-40 0,-60" stroke="white" stroke-width="8" stroke-linecap="round" opacity="0.7"/>
      <path d="M10,-20 Q15,-40 20,-60" stroke="white" stroke-width="8" stroke-linecap="round" opacity="0.7"/>
      <path d="M30,-20 Q35,-40 40,-60" stroke="white" stroke-width="8" stroke-linecap="round" opacity="0.7"/>
    </g>
  </g>
  
  <!-- Subtle highlight -->
  <ellipse cx="300" cy="300" rx="200" ry="150" fill="white" opacity="0.1"/>
</svg>