<svg width="48" height="48" viewBox="0 0 48 48" fill="none" xmlns="http://www.w3.org/2000/svg">
<path d="M21.9982 11.999C24.2071 11.999 25.9979 10.2083 25.9979 7.99932C25.9979 5.79037 24.2071 3.99966 21.9982 3.99966C19.7892 3.99966 17.9985 5.79037 17.9985 7.99932C17.9985 10.2083 19.7892 11.999 21.9982 11.999Z" stroke="white" stroke-width="3.99966" stroke-linecap="round" stroke-linejoin="round"/>
<path d="M35.9967 19.9983C38.2057 19.9983 39.9964 18.2076 39.9964 15.9986C39.9964 13.7897 38.2057 11.999 35.9967 11.999C33.7878 11.999 31.9971 13.7897 31.9971 15.9986C31.9971 18.2076 33.7878 19.9983 35.9967 19.9983Z" stroke="white" stroke-width="3.99966" stroke-linecap="round" stroke-linejoin="round"/>
<path d="M39.9967 35.9969C42.2057 35.9969 43.9964 34.2062 43.9964 31.9973C43.9964 29.7883 42.2057 27.9976 39.9967 27.9976C37.7878 27.9976 35.9971 29.7883 35.9971 31.9973C35.9971 34.2062 37.7878 35.9969 39.9967 35.9969Z" stroke="white" stroke-width="3.99966" stroke-linecap="round" stroke-linejoin="round"/>
<path d="M17.9983 19.9983C19.3114 19.9983 20.6117 20.2569 21.8248 20.7594C23.038 21.2619 24.1403 21.9985 25.0688 22.927C25.9973 23.8555 26.7338 24.9578 27.2363 26.1709C27.7388 27.3841 27.9975 28.6843 27.9975 29.9974V36.9968C27.9969 38.6696 27.3973 40.2869 26.3072 41.5557C25.2172 42.8246 23.7087 43.6611 22.0551 43.9137C20.4015 44.1663 18.7122 43.8184 17.293 42.9329C15.8738 42.0474 14.8186 40.683 14.3186 39.0867C13.4654 36.3336 11.6655 34.5304 8.91908 33.6771C7.32358 33.1774 5.95966 32.1231 5.07413 30.7049C4.18859 29.2868 3.83994 27.5985 4.09127 25.9455C4.34259 24.2926 5.17728 22.7842 6.4443 21.6934C7.71133 20.6025 9.32698 20.0012 10.9989 19.9983H17.9983Z" stroke="white" stroke-width="3.99966" stroke-linecap="round" stroke-linejoin="round"/>
</svg>
