<svg width="48" height="48" viewBox="0 0 48 48" fill="none" xmlns="http://www.w3.org/2000/svg">
<path d="M21.9982 11.999C24.2071 11.999 25.9979 10.2083 25.9979 7.99932C25.9979 5.79036 24.2071 3.99966 21.9982 3.99966C19.7892 3.99966 17.9985 5.79036 17.9985 7.99932C17.9985 10.2083 19.7892 11.999 21.9982 11.999Z" stroke="white" stroke-width="3.99966" stroke-linecap="round" stroke-linejoin="round"/>
<path d="M35.997 19.9983C38.2059 19.9983 39.9966 18.2076 39.9966 15.9986C39.9966 13.7897 38.2059 11.999 35.997 11.999C33.788 11.999 31.9973 13.7897 31.9973 15.9986C31.9973 18.2076 33.788 19.9983 35.997 19.9983Z" stroke="white" stroke-width="3.99966" stroke-linecap="round" stroke-linejoin="round"/>
<path d="M39.9965 35.9969C42.2054 35.9969 43.9961 34.2062 43.9961 31.9973C43.9961 29.7883 42.2054 27.9976 39.9965 27.9976C37.7875 27.9976 35.9968 29.7883 35.9968 31.9973C35.9968 34.2062 37.7875 35.9969 39.9965 35.9969Z" stroke="white" stroke-width="3.99966" stroke-linecap="round" stroke-linejoin="round"/>
<path d="M17.9985 19.9983C19.3117 19.9983 20.6119 20.2569 21.8251 20.7594C23.0382 21.2619 24.1405 21.9985 25.069 22.927C25.9975 23.8555 26.7341 24.9578 27.2366 26.1709C27.7391 27.3841 27.9977 28.6843 27.9977 29.9974V36.9968C27.9972 38.6696 27.3975 40.2869 26.3075 41.5557C25.2174 42.8246 23.709 43.6611 22.0554 43.9137C20.4018 44.1663 18.7124 43.8184 17.2932 42.9329C15.874 42.0474 14.8188 40.683 14.3189 39.0867C13.4656 36.3336 11.6658 34.5304 8.91932 33.6771C7.32383 33.1774 5.95991 32.1231 5.07437 30.7049C4.18884 29.2868 3.84019 27.5985 4.09151 25.9455C4.34283 24.2926 5.17753 22.7842 6.44455 21.6934C7.71157 20.6025 9.32722 20.0012 10.9991 19.9983H17.9985Z" stroke="white" stroke-width="3.99966" stroke-linecap="round" stroke-linejoin="round"/>
</svg>
